<svg width="768" height="768" viewBox="0 0 768 768" fill="none" xmlns="http://www.w3.org/2000/svg">
  <defs>
    <linearGradient id="shieldBg" x1="122" y1="132" x2="646" y2="654" gradientUnits="userSpaceOnUse">
      <stop stop-color="#111111" />
      <stop offset="1" stop-color="#000000" />
    </linearGradient>
    <linearGradient id="truckBlue" x1="200" y1="280" x2="562" y2="520" gradientUnits="userSpaceOnUse">
      <stop stop-color="#4BB6FF" />
      <stop offset="0.5" stop-color="#0E67D8" />
      <stop offset="1" stop-color="#073B86" />
    </linearGradient>
    <linearGradient id="chrome" x1="208" y1="292" x2="560" y2="520" gradientUnits="userSpaceOnUse">
      <stop stop-color="#FFFFFF" />
      <stop offset="0.35" stop-color="#D9D9D9" />
      <stop offset="0.7" stop-color="#8E8E8E" />
      <stop offset="1" stop-color="#F5F5F5" />
    </linearGradient>
    <linearGradient id="orangeGlow" x1="152" y1="160" x2="616" y2="592" gradientUnits="userSpaceOnUse">
      <stop stop-color="#FFB11B" stop-opacity="0.95" />
      <stop offset="1" stop-color="#FF7A00" stop-opacity="0.15" />
    </linearGradient>
  </defs>

  <path d="M384 56L676 176V420C676 546 595 632 384 712C173 632 92 546 92 420V176L384 56Z" fill="url(#shieldBg)" stroke="#111111" stroke-width="20"/>
  <path d="M384 88L650 198V414C650 525 579 606 384 681C189 606 118 525 118 414V198L384 88Z" fill="#0A0A0A" stroke="#FFFFFF" stroke-width="8" opacity="0.95"/>

  <path d="M192 214C258 172 321 152 384 152C447 152 510 172 576 214" stroke="url(#orangeGlow)" stroke-width="10" stroke-linecap="round"/>
  <path d="M182 244C251 202 314 182 384 182C454 182 517 202 586 244" stroke="url(#orangeGlow)" stroke-width="8" stroke-linecap="round" opacity="0.8"/>
  <path d="M172 274C245 232 312 212 384 212C456 212 523 232 596 274" stroke="url(#orangeGlow)" stroke-width="6" stroke-linecap="round" opacity="0.65"/>

  <g fill="#FF9A00">
    <path d="M384 122L395 150L425 152L402 171L410 200L384 183L358 200L366 171L343 152L373 150L384 122Z"/>
    <path d="M310 140L318 161L341 162L323 176L329 198L310 185L291 198L297 176L279 162L302 161L310 140Z"/>
    <path d="M458 140L466 161L489 162L471 176L477 198L458 185L439 198L445 176L427 162L450 161L458 140Z"/>
  </g>

  <rect x="190" y="274" width="388" height="22" rx="11" fill="url(#chrome)"/>
  <rect x="214" y="296" width="308" height="178" rx="28" fill="url(#truckBlue)" stroke="#0A2A5C" stroke-width="8"/>
  <rect x="286" y="314" width="188" height="64" rx="14" fill="#101820" stroke="#1F1F1F" stroke-width="6"/>
  <path d="M298 318H456L486 354V371H298V318Z" fill="#222A35"/>
  <rect x="486" y="318" width="40" height="70" rx="10" fill="#0D1C2D" stroke="#1B2A3D" stroke-width="5"/>
  <rect x="224" y="336" width="86" height="130" rx="18" fill="#1168D8" stroke="#0A2A5C" stroke-width="6"/>
  <path d="M238 350H292L300 376H230L238 350Z" fill="#1D89FF"/>

  <rect x="158" y="258" width="44" height="246" rx="16" fill="url(#chrome)" stroke="#666" stroke-width="6"/>
  <rect x="562" y="258" width="44" height="246" rx="16" fill="url(#chrome)" stroke="#666" stroke-width="6"/>
  <rect x="194" y="492" width="356" height="18" rx="9" fill="#0D0D0D"/>

  <rect x="490" y="402" width="92" height="70" rx="22" fill="url(#truckBlue)" stroke="#0A2A5C" stroke-width="6"/>
  <path d="M504 415H564L574 442H496L504 415Z" fill="#1D89FF"/>
  <rect x="504" y="426" width="34" height="18" rx="9" fill="#FFF4C4"/>
  <rect x="546" y="426" width="34" height="18" rx="9" fill="#FFF4C4"/>

  <rect x="200" y="382" width="22" height="92" rx="11" fill="#0A0A0A"/>
  <rect x="544" y="382" width="22" height="92" rx="11" fill="#0A0A0A"/>

  <circle cx="254" cy="526" r="48" fill="#1B1B1B" stroke="#F1F1F1" stroke-width="8"/>
  <circle cx="254" cy="526" r="22" fill="#A0A0A0"/>
  <circle cx="510" cy="526" r="48" fill="#1B1B1B" stroke="#F1F1F1" stroke-width="8"/>
  <circle cx="510" cy="526" r="22" fill="#A0A0A0"/>
  <circle cx="214" cy="499" r="28" fill="#1B1B1B" stroke="#F1F1F1" stroke-width="8"/>
  <circle cx="214" cy="499" r="12" fill="#A0A0A0"/>
  <circle cx="550" cy="499" r="28" fill="#1B1B1B" stroke="#F1F1F1" stroke-width="8"/>
  <circle cx="550" cy="499" r="12" fill="#A0A0A0"/>

  <path d="M250 466C280 438 308 424 346 424H464C503 424 533 438 554 466V482H250V466Z" fill="#082B64"/>
  <path d="M268 470C290 451 311 442 338 442H462C489 442 511 451 534 470V478H268V470Z" fill="#1A8FFF" opacity="0.55"/>

  <path d="M236 548H532L544 632L384 664L224 632L236 548Z" fill="#D9D9D9" stroke="#0B0B0B" stroke-width="10"/>
  <path d="M256 554H512L521 616L384 646L247 616L256 554Z" fill="#F4F4F4" stroke="#7A7A7A" stroke-width="4"/>
  <path d="M264 602H504L492 628H276L264 602Z" fill="#C6C6C6"/>

  <path d="M190 570L232 552L258 638L214 660L164 616L190 570Z" fill="#FF8A00" stroke="#0B0B0B" stroke-width="8"/>
  <path d="M578 570L536 552L510 638L554 660L604 616L578 570Z" fill="#FF8A00" stroke="#0B0B0B" stroke-width="8"/>
</svg>
